<svg xmlns="http://www.w3.org/2000/svg" viewBox="0 0 32 32" width="32" height="32" fill="currentColor">
  <path d="M27 5.25h-22c-0.966 0.001-1.749 0.784-1.75 1.75v18c0.001 0.966 0.784 1.749 1.75 1.75h22c0.966-0.001 1.749-0.784 1.75-1.75v-18c-0.001-0.966-0.784-1.749-1.75-1.75zM5 6.75h22c0.138 0 0.25 0.112 0.25 0.25v2.25h-22.5v-2.25c0-0.138 0.112-0.25 0.25-0.25zM27 25.25h-22c-0.138 0-0.25-0.112-0.25-0.25v-14.25h22.5v14.25c0 0.138-0.112 0.25-0.25 0.25zM21.75 14c0 3.176-2.574 5.75-5.75 5.75s-5.75-2.574-5.75-5.75c0-0.414 0.336-0.75 0.75-0.75s0.75 0.336 0.75 0.75c0 2.347 1.903 4.25 4.25 4.25s4.25-1.903 4.25-4.25c0-0.414 0.336-0.75 0.75-0.75s0.75 0.336 0.75 0.75z"></path>
</svg>
