<svg xmlns="http://www.w3.org/2000/svg" viewBox="0 0 32 32" width="32" height="32" fill="currentColor">
  <path d="M28.776 26.623c-1.94-3.298-5.031-5.742-8.709-6.8l-0.105-0.026c2.864-1.477 4.788-4.415 4.788-7.802 0-4.832-3.918-8.75-8.75-8.75s-8.75 3.918-8.75 8.75c0 3.387 1.924 6.324 4.739 7.779l0.049 0.023c-3.783 1.083-6.874 3.528-8.776 6.756l-0.038 0.069c-0.063 0.108-0.101 0.237-0.101 0.376 0 0.414 0.336 0.75 0.75 0.75 0.276 0 0.517-0.149 0.647-0.371l0.002-0.004c2.335-3.988 6.598-6.624 11.477-6.624s9.143 2.636 11.443 6.562l0.034 0.063c0.132 0.225 0.373 0.374 0.649 0.374 0.414 0 0.75-0.336 0.75-0.75 0-0.138-0.037-0.268-0.103-0.379zM8.75 12c0-4.004 3.246-7.25 7.25-7.25s7.25 3.246 7.25 7.25c0 4.004-3.246 7.25-7.25 7.25-4.002-0.005-7.245-3.248-7.25-7.25z"></path>
</svg>
