<svg xmlns="http://www.w3.org/2000/svg" width="32" height="32" viewBox="0 0 32 32" fill="currentColor">
  <path d="M28.629 22.407c-0.002 0.003-0.003 0.005-0.005 0.008-0.029 0.043-0.060 0.081-0.095 0.116l-4 4a0.75 0.75 0 0 1-1.061-1.061l2.72-2.72H4a0.75 0.75 0 0 1 0-1.5h22.189l-2.72-2.72a0.75 0.75 0 0 1 1.061-1.061l4 4a0.75 0.75 0 0 1 0.099 0.113c0.041 0.061 0.074 0.128 0.099 0.199a0.75 0.75 0 0 1 0 0.506 0.74 0.74 0 0 1-0.099 0.199zM3.306 9.715a0.74 0.74 0 0 1 0.099-0.199l4-4a0.75 0.75 0 1 1 1.061 1.061l-2.72 2.72H28a0.75 0.75 0 0 1 0 1.5H5.811l2.72 2.72a0.75 0.75 0 1 1-1.061 1.061l-4-4a0.75 0.75 0 0 1-0.099-0.199 0.75 0.75 0 0 1 0-0.506z"></path>
</svg>
